<?plantuml 1.2026.2?><svg xmlns="http://www.w3.org/2000/svg" xmlns:xlink="http://www.w3.org/1999/xlink" contentStyleType="text/css" data-diagram-type="EBNF" height="229px" preserveAspectRatio="none" style="width:931px;height:229px;background:#222222;" version="1.1" viewBox="0 0 931 229" width="931px" zoomAndPan="magnify"><defs/><g><rect fill="#222222" height="229" style="stroke:none;stroke-width:1;" width="931" x="0" y="0"/><text fill="#D9D3D0" font-family="Verdana" font-size="14" font-weight="bold" lengthAdjust="spacing" textLength="86.3584" x="5" y="19.0752">Arguments</text><line style="stroke:#D9D3D0;stroke-width:1.5;" x1="35" x2="35" y1="45.522" y2="45.522"/><rect fill="#003153" height="27.0146" rx="5" ry="5" style="stroke:#D9D3D0;stroke-width:1.5;" width="41.3223" x="35" y="32.0146"/><text fill="#D9D3D0" font-family="Verdana" font-size="14" lengthAdjust="spacing" textLength="31.3223" x="40" y="51.0898">verb</text><line style="stroke:#D9D3D0;stroke-width:1.5;" x1="76.3223" x2="96.3223" y1="45.522" y2="45.522"/><line style="stroke:#D9D3D0;stroke-width:1.5;" x1="96.3223" x2="224.3193" y1="45.522" y2="45.522"/><path d="M145.5211,45.522 L145.5211,42.522 L151.5211,45.522 L145.5211,48.522 L145.5211,45.522" fill="#D9D3D0"/><path d="M96.3223,45.522 C105.3223,45.522 108.3223,48.2756 108.3223,57.2756 C108.3223,66.2756 111.3223,69.0293 120.3223,69.0293" fill="none" style="stroke:#D9D3D0;stroke-width:1.5;"/><path d="M200.3193,69.0293 C209.3193,69.0293 212.3193,66.2756 212.3193,57.2756 C212.3193,48.2756 215.3193,45.522 224.3193,45.522" fill="none" style="stroke:#D9D3D0;stroke-width:1.5;"/><line style="stroke:#D9D3D0;stroke-width:1.5;" x1="120.3223" x2="120.3223" y1="69.0293" y2="69.0293"/><rect fill="none" height="27.0146" style="stroke:#D9D3D0;stroke-width:0.5;" width="14.9219" x="120.3223" y="55.522"/><text fill="#D9D3D0" font-family="Verdana" font-size="14" lengthAdjust="spacing" textLength="4.9219" x="125.3223" y="74.5972">&#160;</text><line style="stroke:#D9D3D0;stroke-width:1.5;" x1="135.2441" x2="155.2441" y1="69.0293" y2="69.0293"/><rect fill="#003153" height="27.0146" rx="5" ry="5" style="stroke:#D9D3D0;stroke-width:1.5;" width="45.0752" x="155.2441" y="55.522"/><text fill="#D9D3D0" font-family="Verdana" font-size="14" lengthAdjust="spacing" textLength="35.0752" x="160.2441" y="74.5972">noun</text><line style="stroke:#D9D3D0;stroke-width:1.5;" x1="224.3193" x2="244.3193" y1="45.522" y2="45.522"/><line style="stroke:#D9D3D0;stroke-width:1.5;" x1="244.3193" x2="891.9761" y1="45.522" y2="45.522"/><path d="M501.382,45.522 L501.382,42.522 L507.382,45.522 L501.382,48.522 L501.382,45.522" fill="#D9D3D0"/><path d="M244.3193,45.522 C253.3193,45.522 256.3193,54.2756 256.3193,63.2756 C256.3193,72.2756 259.3193,81.0293 268.3193,81.0293" fill="none" style="stroke:#D9D3D0;stroke-width:1.5;"/><path d="M867.9761,81.0293 C876.9761,81.0293 879.9761,72.2756 879.9761,63.2756 C879.9761,54.2756 882.9761,45.522 891.9761,45.522" fill="none" style="stroke:#D9D3D0;stroke-width:1.5;"/><path d="M276.3193,73.0293 C276.3193,79.0293 278.3193,81.0293 284.3193,81.0293" fill="none" style="stroke:#D9D3D0;stroke-width:1.5;"/><line style="stroke:#D9D3D0;stroke-width:1.5;" x1="276.3193" x2="276.3193" y1="68.522" y2="73.0293"/><path d="M276.3193,68.522 C276.3193,62.522 278.3193,60.522 284.3193,60.522" fill="none" style="stroke:#D9D3D0;stroke-width:1.5;"/><line style="stroke:#D9D3D0;stroke-width:1.5;" x1="283.3193" x2="852.9761" y1="60.522" y2="60.522"/><path d="M623.1134,60.522 L623.1134,57.522 L617.1134,60.522 L623.1134,63.522 L623.1134,60.522" fill="#D9D3D0"/><path d="M859.9761,73.0293 C859.9761,79.0293 857.9761,81.0293 851.9761,81.0293" fill="none" style="stroke:#D9D3D0;stroke-width:1.5;"/><line style="stroke:#D9D3D0;stroke-width:1.5;" x1="859.9761" x2="859.9761" y1="68.522" y2="73.0293"/><path d="M851.9761,60.522 C857.9761,60.522 859.9761,62.522 859.9761,68.522" fill="none" style="stroke:#D9D3D0;stroke-width:1.5;"/><line style="stroke:#D9D3D0;stroke-width:1.5;" x1="268.3193" x2="283.3193" y1="81.0293" y2="81.0293"/><line style="stroke:#D9D3D0;stroke-width:1.5;" x1="852.9761" x2="867.9761" y1="81.0293" y2="81.0293"/><line style="stroke:#D9D3D0;stroke-width:1.5;" x1="283.3193" x2="283.3193" y1="81.0293" y2="81.0293"/><rect fill="none" height="27.0146" style="stroke:#D9D3D0;stroke-width:0.5;" width="14.9219" x="283.3193" y="67.522"/><text fill="#D9D3D0" font-family="Verdana" font-size="14" lengthAdjust="spacing" textLength="4.9219" x="288.3193" y="86.5972">&#160;</text><line style="stroke:#D9D3D0;stroke-width:1.5;" x1="298.2412" x2="318.2412" y1="81.0293" y2="81.0293"/><line style="stroke:#D9D3D0;stroke-width:1.5;" x1="318.2412" x2="505.7085" y1="81.0293" y2="81.0293"/><path d="M391.2281,81.0293 L391.2281,78.0293 L397.2281,81.0293 L391.2281,84.0293 L391.2281,81.0293" fill="#D9D3D0"/><path d="M318.2412,81.0293 C327.2412,81.0293 330.2412,89.783 330.2412,98.783 C330.2412,107.783 333.2412,116.5366 342.2412,116.5366" fill="none" style="stroke:#D9D3D0;stroke-width:1.5;"/><path d="M481.7085,116.5366 C490.7085,116.5366 493.7085,107.783 493.7085,98.783 C493.7085,89.783 496.7085,81.0293 505.7085,81.0293" fill="none" style="stroke:#D9D3D0;stroke-width:1.5;"/><path d="M350.2412,108.5366 C350.2412,114.5366 352.2412,116.5366 358.2412,116.5366" fill="none" style="stroke:#D9D3D0;stroke-width:1.5;"/><line style="stroke:#D9D3D0;stroke-width:1.5;" x1="350.2412" x2="350.2412" y1="104.0293" y2="108.5366"/><path d="M350.2412,104.0293 C350.2412,98.0293 352.2412,96.0293 358.2412,96.0293" fill="none" style="stroke:#D9D3D0;stroke-width:1.5;"/><line style="stroke:#D9D3D0;stroke-width:1.5;" x1="357.2412" x2="466.7085" y1="96.0293" y2="96.0293"/><path d="M420.9216,96.0293 L420.9216,93.0293 L414.9216,96.0293 L420.9216,99.0293 L420.9216,96.0293" fill="#D9D3D0"/><path d="M473.7085,108.5366 C473.7085,114.5366 471.7085,116.5366 465.7085,116.5366" fill="none" style="stroke:#D9D3D0;stroke-width:1.5;"/><line style="stroke:#D9D3D0;stroke-width:1.5;" x1="473.7085" x2="473.7085" y1="104.0293" y2="108.5366"/><path d="M465.7085,96.0293 C471.7085,96.0293 473.7085,98.0293 473.7085,104.0293" fill="none" style="stroke:#D9D3D0;stroke-width:1.5;"/><line style="stroke:#D9D3D0;stroke-width:1.5;" x1="342.2412" x2="357.2412" y1="116.5366" y2="116.5366"/><line style="stroke:#D9D3D0;stroke-width:1.5;" x1="466.7085" x2="481.7085" y1="116.5366" y2="116.5366"/><rect fill="none" height="27.0146" style="stroke:#D9D3D0;stroke-width:0.5;" width="16.3574" x="403.7961" y="103.0293"/><text fill="#D9D3D0" font-family="Verdana" font-size="14" lengthAdjust="spacing" textLength="6.3574" x="408.7961" y="122.1045">-</text><path d="M357.2412,150.0439 L357.2412,207.4419 A0,0 0 0 0 357.2412,207.4419 L466.7085,207.4419 A0,0 0 0 0 466.7085,207.4419 L466.7085,160.0439 L456.7085,150.0439 L415.9749,150.0439 L411.9749,130.0439 L407.9749,150.0439 L357.2412,150.0439 A0,0 0 0 0 357.2412,150.0439" fill="#003153" style="stroke:#D9D3D0;stroke-width:1;"/><path d="M456.7085,150.0439 L456.7085,160.0439 L466.7085,160.0439 L456.7085,150.0439" fill="#003153" style="stroke:#D9D3D0;stroke-width:1;"/><text fill="#D9D3D0" font-family="Verdana" font-size="13" lengthAdjust="spacing" textLength="56.6021" x="367.8115" y="168.1138">As many</text><text fill="#D9D3D0" font-family="Verdana" font-size="13" lengthAdjust="spacing" textLength="45.4238" x="367.8115" y="183.9131">dashes</text><text fill="#D9D3D0" font-family="Verdana" font-size="13" lengthAdjust="spacing" textLength="79.3267" x="367.8115" y="199.7124">as you want</text><line style="stroke:#D9D3D0;stroke-width:1.5;" x1="357.2412" x2="403.7961" y1="116.5366" y2="116.5366"/><path d="M378.5187,116.5366 L378.5187,113.5366 L384.5187,116.5366 L378.5187,119.5366 L378.5187,116.5366" fill="#D9D3D0"/><line style="stroke:#D9D3D0;stroke-width:1.5;" x1="420.1536" x2="466.7085" y1="116.5366" y2="116.5366"/><path d="M441.431,116.5366 L441.431,113.5366 L447.431,116.5366 L441.431,119.5366 L441.431,116.5366" fill="#D9D3D0"/><line style="stroke:#D9D3D0;stroke-width:1.5;" x1="505.7085" x2="525.7085" y1="81.0293" y2="81.0293"/><rect fill="#003153" height="27.0146" rx="5" ry="5" style="stroke:#D9D3D0;stroke-width:1.5;" width="49.2246" x="525.7085" y="67.522"/><text fill="#D9D3D0" font-family="Verdana" font-size="14" lengthAdjust="spacing" textLength="39.2246" x="530.7085" y="86.5972">name</text><line style="stroke:#D9D3D0;stroke-width:1.5;" x1="574.9331" x2="594.9331" y1="81.0293" y2="81.0293"/><line style="stroke:#D9D3D0;stroke-width:1.5;" x1="594.9331" x2="852.9761" y1="81.0293" y2="81.0293"/><path d="M696.1503,81.0293 L696.1503,78.0293 L702.1503,81.0293 L696.1503,84.0293 L696.1503,81.0293" fill="#D9D3D0"/><path d="M594.9331,81.0293 C603.9331,81.0293 606.9331,83.783 606.9331,92.783 C606.9331,101.783 609.9331,104.5366 618.9331,104.5366" fill="none" style="stroke:#D9D3D0;stroke-width:1.5;"/><path d="M828.9761,104.5366 C837.9761,104.5366 840.9761,101.783 840.9761,92.783 C840.9761,83.783 843.9761,81.0293 852.9761,81.0293" fill="none" style="stroke:#D9D3D0;stroke-width:1.5;"/><line style="stroke:#D9D3D0;stroke-width:1.5;" x1="618.9331" x2="618.9331" y1="104.5366" y2="104.5366"/><rect fill="none" height="27.0146" style="stroke:#D9D3D0;stroke-width:0.5;" width="21.457" x="618.9331" y="91.0293"/><text fill="#D9D3D0" font-family="Verdana" font-size="14" lengthAdjust="spacing" textLength="11.457" x="623.9331" y="110.1045">=</text><line style="stroke:#D9D3D0;stroke-width:1.5;" x1="640.3901" x2="660.3901" y1="104.5366" y2="104.5366"/><rect fill="#003153" height="27.0146" rx="5" ry="5" style="stroke:#D9D3D0;stroke-width:1.5;" width="47.7344" x="684.3901" y="91.0293"/><text fill="#D9D3D0" font-family="Verdana" font-size="14" lengthAdjust="spacing" textLength="37.7344" x="689.3901" y="110.1045">value</text><line style="stroke:#D9D3D0;stroke-width:1.5;" x1="660.3901" x2="684.3901" y1="104.5366" y2="104.5366"/><line style="stroke:#D9D3D0;stroke-width:1.5;" x1="732.1245" x2="828.9761" y1="104.5366" y2="104.5366"/><line style="stroke:#D9D3D0;stroke-width:1.5;" x1="684.3901" x2="684.3901" y1="141.5513" y2="141.5513"/><rect fill="none" height="27.0146" style="stroke:#D9D3D0;stroke-width:0.5;" width="16.4258" x="684.3901" y="128.0439"/><text fill="#D9D3D0" font-family="Verdana" font-size="14" lengthAdjust="spacing" textLength="6.4258" x="689.3901" y="147.1191">"</text><line style="stroke:#D9D3D0;stroke-width:1.5;" x1="700.8159" x2="720.8159" y1="141.5513" y2="141.5513"/><rect fill="#003153" height="27.0146" rx="5" ry="5" style="stroke:#D9D3D0;stroke-width:1.5;" width="47.7344" x="720.8159" y="128.0439"/><text fill="#D9D3D0" font-family="Verdana" font-size="14" lengthAdjust="spacing" textLength="37.7344" x="725.8159" y="147.1191">value</text><line style="stroke:#D9D3D0;stroke-width:1.5;" x1="768.5503" x2="788.5503" y1="141.5513" y2="141.5513"/><rect fill="none" height="27.0146" style="stroke:#D9D3D0;stroke-width:0.5;" width="16.4258" x="788.5503" y="128.0439"/><text fill="#D9D3D0" font-family="Verdana" font-size="14" lengthAdjust="spacing" textLength="6.4258" x="793.5503" y="147.1191">"</text><line style="stroke:#D9D3D0;stroke-width:1.5;" x1="804.9761" x2="804.9761" y1="141.5513" y2="141.5513"/><path d="M672.3901,129.5513 C672.3901,138.5513 675.3901,141.5513 684.3901,141.5513" fill="none" style="stroke:#D9D3D0;stroke-width:1.5;"/><line style="stroke:#D9D3D0;stroke-width:1.5;" x1="672.3901" x2="672.3901" y1="116.5366" y2="129.5513"/><path d="M660.3901,104.5366 C669.3901,104.5366 672.3901,107.5366 672.3901,116.5366" fill="none" style="stroke:#D9D3D0;stroke-width:1.5;"/><path d="M816.9761,129.5513 C816.9761,138.5513 813.9761,141.5513 804.9761,141.5513" fill="none" style="stroke:#D9D3D0;stroke-width:1.5;"/><line style="stroke:#D9D3D0;stroke-width:1.5;" x1="816.9761" x2="816.9761" y1="116.5366" y2="129.5513"/><path d="M816.9761,116.5366 C816.9761,107.5366 819.9761,104.5366 828.9761,104.5366" fill="none" style="stroke:#D9D3D0;stroke-width:1.5;"/><path d="M598.0955,165.0586 L598.0955,190.8579 L849.8137,190.8579 L849.8137,175.0586 L839.8137,165.0586 L598.0955,165.0586" fill="#003153" style="stroke:#D9D3D0;stroke-width:1;"/><path d="M839.8137,165.0586 L839.8137,175.0586 L849.8137,175.0586 L839.8137,165.0586" fill="#003153" style="stroke:#D9D3D0;stroke-width:1;"/><text fill="#D9D3D0" font-family="Verdana" font-size="13" lengthAdjust="spacing" textLength="221.5776" x="608.6658" y="183.1284">Optional for switch (boolean true)</text><ellipse cx="9" cy="45.522" fill="none" rx="4" ry="4" style="stroke:#D9D3D0;stroke-width:2;"/><ellipse cx="921.9761" cy="45.522" fill="#D9D3D0" rx="4" ry="4" style="stroke:#D9D3D0;stroke-width:1;"/><line style="stroke:#D9D3D0;stroke-width:1.5;" x1="13" x2="35" y1="45.522" y2="45.522"/><line style="stroke:#D9D3D0;stroke-width:1.5;" x1="891.9761" x2="917.9761" y1="45.522" y2="45.522"/><path d="M902.9761,45.522 L902.9761,42.522 L908.9761,45.522 L902.9761,48.522 L902.9761,45.522" fill="#D9D3D0"/><?plantuml-src xLR9Rjim4BthAwRk8N7WfbwG0a6J8bvQ940sL6bxQ7COYsEBjKog96N7JVtlfUXLbPt4YOyb844SldcQUJEaTA8DAaDjqV5UcP3w1EqeeLXnOJo_nyKrAkn30uDULyb4iAQCf8BNrMhLgwjkqYTXD1p3W5Ix1D-X08KI20k4MoXvOCUzkwV3hTr3uKq1TlUWhg6FOlH304CTahOFg64a4nYYCB1NX75fxfgEtSmi7GBxv5vwN2Zb5fqB3D1c0t_iqqvXfpIPbjBd8XHpBhSvYutpAZPS2eoWO_FMGsw247RRKaQ40enAg6XZpJXEPkFttWa9vdad2uNTED9c5D472r9Icga-EO7BvLhbeERMFabXfjRMOQlMAi-jbrO0-4gAeK1dF1t5fCwvwENnraghhJSX3tg2j8QAirsWwd811tOojXUJWIlpDD80dI3pkcOP9gnZT-_Oz4Wz0HWIiYS13JSHpN6f0Zx_JM1xyM7Fz1AIpLmly8xta_utpam8jNBP8OxUJklYQTlsiMlxkb9oU2wZYCSopegt0AqhtGBHeWucaSbLB8Uua4Bg60DYSsnJ9egJMiAUymv5Db7VA3JK7TdCj8muMuBOJMjum6ExaQwHCIwwK5aEsQTV2Oc0KgfKiuPKjW3h4lH3P7AOadGmqhIqyaLJWmpwgN1kBsJ42mmVS3Doeg_lxmQgVzjoLJYhjq5Eql5oOTBNePe4aFVEGkySQgRMGMQroLKG4Mk6TXRCMlh1S6PL0_YCZ2SQ3hE44Th-V4INxOZWNbKtHl5sOkZnoDTo-3PnaiOUCCyZ-RGu3JRsFLqS49lxfaUYtIyzvxw-1Su2QJzsGG-xj0Avlb8v3iK7Q5xAORModSPUnfAq8nuyc-9IFhTVhje_RVIJ_bxHnUFCIRLGV4iTxvkP_9jjhYp7hDdhMsDgRetfuzQOphR6TFb29lifQQAc2U7DXgVC_n_LRVoeLlQhvUgx_UfV?></g></svg>